Coordinates
version=1
nRows=32
nColumns=18
inDegrees=yes

Units are S.I. units (second, meters, Newtons, ...)
Angles are in degrees.

endheader
time	ground_thorax_rot_x	ground_thorax_rot_y	ground_thorax_rot_z	ground_thorax_tx	ground_thorax_ty	ground_thorax_tz	clav_prot	clav_elev	scapula_abduction	scapula_elevation	scapula_upward_rot	scapula_winging	plane_elv	shoulder_elv	axial_rot	elbow_flexion	pro_sup
      0.00000000	      1.32477678	     -2.01287052	     -8.35894376	     -0.00423131	      0.00403036	     -0.00078352	    -27.36461814	     -7.27470525	    -20.95791126	     -6.17115173	     11.25886739	      6.79674775	    -23.61051307	     17.71507860	     24.41123502	      0.00000000	     34.32000000
      0.01000000	      1.49818466	     -2.24784996	     -8.34049017	     -0.00423131	      0.00403036	     -0.00078352	    -27.14892264	     -7.10688776	    -20.44977252	     -6.11246267	     11.58370437	      6.67024078	    -23.90807306	     17.69135945	     23.92535644	      0.00000000	     34.32000000
      0.02000000	      1.54639055	     -2.23721660	     -8.38554977	     -0.00423131	      0.00403036	     -0.00078352	    -27.13282267	     -7.08540165	    -20.42325768	     -6.09669655	     11.59107988	      6.66084716	    -23.76876629	     17.84732621	     23.22022693	      0.00000000	     34.32000000
      0.03000000	      1.90489356	     -2.42495192	     -8.27919775	     -0.00423131	      0.00403036	     -0.00078352	    -27.00965888	     -6.64123080	    -20.07677070	     -5.85621058	     12.01414565	      6.38800229	    -23.39273701	     17.82499942	     22.28435911	      0.00000000	     34.32000000
      0.04000000	      2.26434469	     -2.67119758	     -8.37007897	     -0.00423131	      0.00403036	     -0.00078352	    -26.80332716	     -6.39249475	    -19.63008306	     -5.72249415	     12.28863261	      6.23992845	    -22.56595572	     18.05853199	     21.16395916	      0.00000000	     34.32000000
      0.05000000	      1.50645007	     -2.51232573	     -8.39549077	     -0.00423131	      0.00403036	     -0.00078352	    -26.85667114	     -7.15177875	    -19.99589418	     -6.10471078	     11.49638679	      6.73335239	    -23.57341820	     18.27137313	     21.39965952	      0.00000000	     34.32000000
      0.06000000	      1.55790881	     -2.45628447	     -8.41699313	     -0.00423131	      0.00403036	     -0.00078352	    -26.85697020	     -7.15838743	    -19.99276760	     -6.11093575	     11.50040625	      6.73541652	    -23.60066807	     18.30209022	     21.41457719	      0.00000000	     34.32000000
      0.07000000	      1.52427704	     -2.36312097	     -8.40878666	     -0.00423131	      0.00403036	     -0.00078352	    -26.87849706	     -7.18722585	    -20.02643507	     -6.13306246	     11.49397085	      6.74730977	    -24.02556785	     18.39121454	     20.68445844	      0.00000000	     34.32000000
      0.08000000	      1.48941488	     -2.19204979	     -8.35490039	     -0.00423131	      0.00403036	     -0.00078352	    -26.98712355	     -7.12158872	    -20.23469836	     -6.08448995	     11.47521268	      6.71505858	    -24.58471579	     18.26197868	     21.25697450	      0.00000000	     34.32000000
      0.09000000	      1.51163795	     -2.20098614	     -8.37985376	     -0.00423131	      0.00403036	     -0.00078352	    -26.98441586	     -7.12725287	    -20.24023965	     -6.08328682	     11.45487973	      6.72250762	    -24.22417813	     18.29773867	     21.25652016	      0.00000000	     34.32000000
      0.10000000	      1.58906520	     -2.49009907	     -8.18021261	     -0.00423131	      0.00403036	     -0.00078352	    -26.58461913	     -6.90579192	    -19.63217487	     -5.87684365	     11.42334463	      6.66830740	    -24.51461918	     18.55821896	     20.12272803	      0.00000000	     34.32000000
      0.11000000	      1.60198834	     -2.51203736	     -8.19577649	     -0.00423131	      0.00403036	     -0.00078352	    -26.65933984	     -6.93188415	    -19.72946901	     -5.91290837	     11.46447274	      6.66386003	    -24.46004862	     18.50741120	     20.16248068	      0.00000000	     34.32000000
      0.12000000	      1.79123063	     -2.47942679	     -8.28496854	     -0.00423131	      0.00403036	     -0.00078352	    -26.70534916	     -6.74923302	    -19.79065109	     -5.80174451	     11.56726366	      6.56126651	    -23.81024322	     18.54365493	     19.57367376	      0.00000000	     34.32000000
      0.13000000	      1.43879062	     -2.25826171	     -8.50977908	     -0.00423131	      0.00403036	     -0.00078352	    -26.97797532	     -7.20455682	    -20.38224585	     -6.06235554	     11.15084034	      6.82534932	    -23.67196258	     18.51166188	     19.33475593	      0.00000000	     34.32000000
      0.14000000	      1.46494451	     -2.30109280	     -8.55890422	     -0.00423131	      0.00403036	     -0.00078352	    -26.97537559	     -7.19019094	    -20.39689218	     -6.04352311	     11.12254534	      6.82639738	    -23.67662962	     18.50725019	     19.35235462	      0.00000000	     34.32000000
      0.15000000	      1.45963980	     -2.26970442	     -8.47870113	     -0.00423131	      0.00403036	     -0.00078352	    -26.96010415	     -7.13594991	    -20.37834490	     -6.00276489	     11.13114670	      6.80270721	    -24.26280353	     18.37968089	     20.18829583	      0.00000000	     34.32000000
      0.16000000	      1.52310942	     -2.23956759	     -8.42015967	     -0.00423131	      0.00403036	     -0.00078352	    -26.92620521	     -7.06651805	    -20.34921943	     -5.94054774	     11.10829102	      6.78125404	    -24.26144068	     18.37635722	     20.01496659	      0.00000000	     34.32000000
      0.17000000	      1.59755878	     -2.17884334	     -8.44376756	     -0.00423131	      0.00403036	     -0.00078352	    -26.93146413	     -7.13450609	    -20.32860875	     -6.00051081	     11.13418445	      6.80380518	    -24.26992309	     18.54839697	     20.07741144	      0.00000000	     34.32000000
      0.18000000	      1.36139012	     -2.17898037	     -8.51071435	     -0.00423131	      0.00403036	     -0.00078352	    -26.90253858	     -7.49001442	    -20.32194386	     -6.21725087	     10.91883742	      7.00667192	    -25.25683695	     18.70674780	     20.84293969	      0.00000000	     34.32000000
      0.19000000	      1.27650819	     -2.31942392	     -8.44643388	     -0.00423131	      0.00403036	     -0.00078352	    -26.74816640	     -7.53268677	    -20.19282841	     -6.17266849	     10.66523938	      7.09510727	    -25.22502935	     18.80991930	     20.73981362	      0.00000000	     34.32000000
      0.20000000	      1.31325572	     -2.34901094	     -8.48635040	     -0.00423131	      0.00403036	     -0.00078352	    -26.76335558	     -7.51174774	    -20.22507952	     -6.15633214	     10.66116171	      7.08546531	    -25.22741035	     18.80889107	     20.75826460	      0.00000000	     34.32000000
      0.21000000	      1.42649876	     -2.11268294	     -8.56256567	     -0.00423131	      0.00403036	     -0.00078352	    -27.06563981	     -7.41570109	    -20.72396278	     -6.11717901	     10.71882421	      7.00758660	    -24.85497660	     18.65382902	     20.82439706	      0.00000000	     34.32000000
      0.22000000	      1.42775547	     -2.18488309	     -8.60782351	     -0.00423131	      0.00403036	     -0.00078352	    -27.06368990	     -7.39260877	    -20.74213801	     -6.09118583	     10.68898361	      7.00446415	    -24.85581971	     18.61536736	     20.84141382	      0.00000000	     34.32000000
      0.23000000	      1.34151782	     -2.22253855	     -8.42187617	     -0.00423131	      0.00403036	     -0.00078352	    -27.03986604	     -7.29507318	    -20.75020504	     -6.00094708	     10.64027849	      6.97579807	    -25.55108740	     18.34514063	     23.96335239	      0.00000000	     34.32000000
      0.24000000	      1.37266895	     -2.30737484	     -8.48506180	     -0.00423131	      0.00403036	     -0.00078352	    -27.04437941	     -7.29067471	    -20.76828695	     -5.99312091	     10.62297302	      6.97798340	    -25.54741947	     18.31348500	     23.97468470	      0.00000000	     34.32000000
      0.25000000	      1.32886217	     -2.25888404	     -8.56055501	     -0.00423131	      0.00403036	     -0.00078352	    -27.15980452	     -7.32404136	    -20.98610278	     -6.01192432	     10.56749705	      6.99495109	    -25.58033835	     18.16815687	     23.95950048	      0.00000000	     34.32000000
      0.26000000	      1.30906912	     -2.22087265	     -8.60195019	     -0.00423131	      0.00403036	     -0.00078352	    -27.24115292	     -7.34980620	    -21.16526454	     -6.01419479	     10.48077522	      7.01857403	    -25.59250427	     18.09263631	     24.25112799	      0.00000000	     34.32000000
      0.27000000	      1.30236563	     -2.23992144	     -8.60885855	     -0.00423131	      0.00403036	     -0.00078352	    -27.22727423	     -7.36778851	    -21.16380323	     -6.01465400	     10.43380401	      7.03817241	    -25.75246535	     18.15749051	     23.95437912	      0.00000000	     34.32000000
      0.28000000	      1.30083451	     -2.30968975	     -8.57802754	     -0.00423131	      0.00403036	     -0.00078352	    -27.14587269	     -7.39538959	    -21.03931351	     -6.02158839	     10.39995428	      7.06483536	    -26.15720548	     18.25297872	     24.26846467	      0.00000000	     34.32000000
      0.29000000	      1.27811886	     -2.26556902	     -8.60081073	     -0.00423131	      0.00403036	     -0.00078352	    -27.18983756	     -7.49055054	    -21.13010707	     -6.08049774	     10.33241467	      7.11704253	    -26.45140185	     18.41316972	     24.32830541	      0.00000000	     34.32000000
      0.30000000	      1.33643572	     -2.27314455	     -8.60725653	     -0.00423131	      0.00403036	     -0.00078352	    -27.19169848	     -7.48704342	    -21.12992663	     -6.07967614	     10.33936871	      7.11371217	    -26.45280254	     18.45720824	     24.35705442	      0.00000000	     34.32000000
      0.31000000	      1.38688285	     -2.28072743	     -8.52877772	     -0.00423131	      0.00403036	     -0.00078352	    -27.20922523	     -7.34926250	    -21.07935790	     -6.02729982	     10.53934809	      7.00775076	    -27.25283552	     18.04051326	     29.22480309	      0.00000000	     34.32000000
